<?xml version="1.0" encoding="UTF-8" standalone="no"?>
<svg width="58px" height="50px" viewBox="0 0 58 50" version="1.1" xmlns="http://www.w3.org/2000/svg" xmlns:xlink="http://www.w3.org/1999/xlink">
    <!-- Generator: Sketch 39.1 (31720) - http://www.bohemiancoding.com/sketch -->
    <title>library_minimal</title>
    <desc>Created with Sketch.</desc>
    <defs></defs>
    <g id="Books" stroke="none" stroke-width="1" fill="none" fill-rule="evenodd">
        <g id="Mockup#2-Various-Themes" transform="translate(-1139.000000, -325.000000)">
            <g id="Eccru---Hot-Pink">
                <g id="Library-Navigation" transform="translate(1136.000000, 277.000000)">
                    <g id="library_minimal" transform="translate(3.000000, 48.000000)">
                        <g id="Layer_1">
                            <g id="Group" transform="translate(4.078125, 3.767123)" fill="#F7B239">
                                <path d="M48.55325,31.5151826 C48.7843437,32.7777397 49.1583984,34.0203196 49.6738281,35.218379 L16.7123828,35.218379 L6.54369141,35.2091324 C5.41858203,35.1523973 4.34207031,34.816895 3.40251562,34.251484 C2.36553906,33.6309361 1.49282031,32.733105 0.898320312,31.6253425 C0.349472656,30.6049087 0.0757851562,29.4787671 0.0757851562,28.3542237 C0.0757851562,27.2280822 0.349472656,26.1019406 0.898320312,25.083105 C0.915085937,25.0525114 0.931738281,25.0218037 0.949976562,24.99121 C2.15268359,22.8293379 4.42261328,21.4886986 6.88727344,21.4886986 L49.6738281,21.4886986 C49.1858125,22.6224886 48.8254648,23.7977169 48.5913125,24.99121 C48.5776055,25.0586758 48.5654844,25.1260274 48.55325,25.1934932 C48.4817695,25.573516 48.4239961,25.9579909 48.3799297,26.3425799 C48.3342773,26.7240868 48.302332,27.1070776 48.2840937,27.4916667 C48.2689141,27.7796804 48.2613242,28.06621 48.2613242,28.3542237 C48.2613242,28.6422374 48.2689141,28.9303653 48.2840937,29.2167808 C48.302332,29.6013699 48.3342773,29.9843607 48.3799297,30.3658676 C48.4239961,30.7506849 48.4817695,31.1336758 48.55325,31.5151826 L48.55325,31.5151826 Z" id="Shape"></path>
                                <path d="M49.7695508,6.96381279 C49.7695508,8.08847032 49.4958633,9.21461187 48.9470156,10.2349315 C48.351043,11.3426941 47.4783242,12.2405251 46.4428203,12.8610731 C45.4058438,13.483105 44.2077813,13.8278539 42.9579492,13.8278539 L0.169921875,13.8278539 C0.685351562,12.6296804 1.06087891,11.3871005 1.29197266,10.1246575 C1.36186719,9.74315068 1.41964063,9.36015982 1.46382031,8.97557078 C1.50947266,8.59406393 1.54141797,8.21107306 1.56112891,7.82648402 C1.57483594,7.53995434 1.58242578,7.25194064 1.58242578,6.96392694 C1.58242578,6.67591324 1.57483594,6.38938356 1.56112891,6.10136986 C1.54141797,5.71678082 1.50947266,5.33378995 1.46382031,4.95228311 C1.41975391,4.56769406 1.36198047,4.1847032 1.29197266,3.80319635 C1.06087891,2.54063927 0.686824219,1.29657534 0.169921875,0.0984018265 L42.9579492,0.0984018265 C45.4560273,0.0984018265 47.754957,1.47739726 48.9469023,3.6913242 C49.4958633,4.71152968 49.7695508,5.83767123 49.7695508,6.96381279 L49.7695508,6.96381279 Z" id="Shape"></path>
                            </g>
                            <g id="Group" transform="translate(0.000000, 19.063927)" fill="#2BA5F7">
                                <path d="M57.4435625,20.4824201 C57.7871445,20.828653 58,21.3082192 58,21.8368721 C58,22.8955479 57.1485781,23.7520548 56.0994805,23.7520548 L18.5603398,23.7520548 L18.5603398,19.9216895 L33.1955977,19.9216895 L53.7519531,19.9216895 L56.0994805,19.9216895 C56.6239727,19.9216895 57.0983945,20.1361872 57.4435625,20.4824201 L57.4435625,20.4824201 Z" id="Shape"></path>
                                <path d="M57.4435625,2.92226027 C57.7871445,3.27009132 58,3.74805936 58,4.27671233 C58,5.33390411 57.1485781,6.19189498 56.0994805,6.19189498 L53.7519531,6.19189498 L33.1955977,6.19189498 L10.9653984,6.19189498 C8.46584766,6.19189498 6.16691797,7.57089041 4.97644531,9.78630137 C4.42759766,10.805137 4.15391016,11.9312785 4.15391016,13.0574201 C4.15391016,14.1820776 4.42759766,15.3082192 4.97644531,16.3285388 C5.57094531,17.4363014 6.44366406,18.3341324 7.48064063,18.9546804 C8.42030859,19.5200913 9.49670703,19.8555936 10.6218164,19.9123288 L13.4923633,21.7075342 L10.6218164,23.7519406 L10.6142266,23.7519406 C7.68432031,23.7519406 5.0296875,22.5553653 3.10934375,20.6202055 C1.189,18.6836758 0,16.0116438 0,13.0575342 C0,7.14954338 4.75282813,2.36152968 10.6141133,2.36152968 L33.5620625,0.0529680365 L47.3873594,2.36152968 L56.0994805,2.36152968 C56.6239727,2.36152968 57.0983945,2.5760274 57.4435625,2.92226027 L57.4435625,2.92226027 Z" id="Shape"></path>
                            </g>
                            <path d="M47.3873594,0.0349315068 C53.2486445,0.0349315068 58,4.82294521 58,10.7309361 C58,13.6849315 56.8125859,16.3570776 54.8922422,18.2937215 C52.9718984,20.2288813 50.3172656,21.4254566 47.3873594,21.4254566 L10.6141133,21.4254566 L1.90051953,21.4254566 C0.851421875,21.4254566 0,20.5689498 0,19.510274 C0,18.981621 0.212855469,18.5020548 0.5564375,18.1558219 C0.900019531,17.809589 1.37591406,17.5950913 1.90051953,17.5950913 L4.24804688,17.5950913 L24.8042891,17.5950913 L47.0360742,17.5950913 C48.2859062,17.5950913 49.4839687,17.2503425 50.5209453,16.6283105 C51.5563359,16.0077626 52.4290547,15.1099315 53.0251406,14.0021689 C53.5739883,12.9817352 53.8476758,11.8555936 53.8476758,10.7310502 C53.8476758,9.60490868 53.5739883,8.47876712 53.0251406,7.45833333 C51.833082,5.24429224 49.5342656,3.8652968 47.0361875,3.8652968 L24.8044023,3.8652968 L4.24804688,3.8652968 L1.90051953,3.8652968 C0.851421875,3.8652968 0,3.00730594 0,1.95011416 C0,1.42146119 0.212855469,0.943493151 0.5564375,0.5956621 C0.900019531,0.249429224 1.37591406,0.0349315068 1.90051953,0.0349315068 L47.3873594,0.0349315068 L47.3873594,0.0349315068 Z" id="Shape" fill="#F95428"></path>
                            <g id="Group" transform="translate(4.191406, 3.767123)" fill="#E09B2D">
                                <path d="M49.5605469,21.4886986 C49.0725313,22.6224886 48.7121836,23.7977169 48.4780313,24.99121 L0.836695313,24.99121 C2.03940234,22.8293379 4.30933203,21.4886986 6.77399219,21.4886986 L49.5605469,21.4886986 L49.5605469,21.4886986 Z" id="Shape"></path>
                                <path d="M48.8337344,3.69109589 C48.8169687,3.66004566 48.798957,3.63093607 48.781625,3.60068493 L48.7820781,3.60068493 C48.7784531,3.59429224 48.774375,3.58824201 48.7708633,3.58184932 C48.7454883,3.5380137 48.7197734,3.4946347 48.6931523,3.45273973 C47.4702812,1.37922374 45.2517812,0.098173516 42.8447812,0.098173516 L0.0582265625,0.098173516 C0.546242187,1.23196347 0.906589844,2.40719178 1.14074219,3.60068493 L43.0774609,3.60068493 C43.0955859,3.63082192 43.1156367,3.65993151 43.1324023,3.69109589 C43.68125,4.71152968 43.9549375,5.83767123 43.9549375,6.96381279 C43.9549375,8.08847032 43.68125,9.21461187 43.1324023,10.2349315 C42.5364297,11.3426941 41.6637109,12.2405251 40.628207,12.8610731 C39.5912305,13.483105 38.393168,13.8278539 37.1433359,13.8278539 L42.844668,13.8278539 C44.0945,13.8278539 45.2925625,13.483105 46.3295391,12.8610731 C47.3649297,12.2405251 48.2376484,11.3426941 48.8337344,10.2349315 C49.382582,9.21449772 49.6562695,8.08835616 49.6562695,6.96381279 C49.6562695,5.83767123 49.382582,4.71152968 48.8337344,3.69109589 L48.8337344,3.69109589 Z" id="Shape"></path>
                                <path d="M6.43029687,30.3660959 L9.60500391,33.2251142 L6.43029687,35.2092466 C5.3051875,35.1525114 4.22867578,34.8170091 3.28912109,34.2515982 C2.25214453,33.6310502 1.37942578,32.7332192 0.784925781,31.6254566 C0.565953125,31.2210046 0.392632812,30.7980594 0.26190625,30.3659817 L6.43029687,30.3659817 L6.43029687,30.3660959 Z" id="Shape"></path>
                            </g>
                            <g id="Group" transform="translate(5.324219, 7.534247)" fill="#995C0D">
                                <path d="M47.3071562,21.4263699 C47.2356758,21.8063927 47.1779023,22.1908676 47.1338359,22.5754566 C47.0881836,22.9569635 47.0562383,23.3399543 47.038,23.7245434 L39.1180547,23.7245434 L39.1180547,21.4262557 L47.3071562,21.4262557 L47.3071562,21.4263699 Z" id="Shape"></path>
                                <path d="M47.3071563,27.7480594 L33.3146563,27.7480594 L33.3146563,25.4497717 L47.0381133,25.4497717 C47.0563516,25.8343607 47.0882969,26.2173516 47.1339492,26.5988584 C47.1779023,26.9835616 47.2356758,27.3665525 47.3071563,27.7480594 L47.3071563,27.7480594 Z" id="Shape"></path>
                                <path d="M8.23498047,0.0358447489 L8.23498047,2.33413242 L0.315035156,2.33413242 C0.295324219,1.94954338 0.263378906,1.56655251 0.217726562,1.18504566 C0.173660156,0.800456621 0.115886719,0.417465753 0.0458789062,0.0359589041 L8.23498047,0.0359589041 L8.23498047,0.0358447489 Z" id="Shape"></path>
                                <path d="M14.0384922,4.05936073 L14.0384922,6.3576484 L0.0459921875,6.3576484 C0.115886719,5.97614155 0.173660156,5.59315068 0.217839844,5.20856164 C0.263492187,4.82705479 0.2954375,4.44406393 0.315148437,4.05947489 L14.0384922,4.05947489 L14.0384922,4.05936073 Z" id="Shape"></path>
                            </g>
                            <polygon id="Shape" fill="#F95428" points="20.7903945 42.8159817 20.7903945 49.9650685 15.7061055 47.2071918 10.6217031 49.9650685 10.6217031 42.8159817 10.6217031 38.9763699 10.6217031 34.1332192 20.7903945 34.1332192 20.7903945 38.9856164"></polygon>
                        </g>
                    </g>
                </g>
            </g>
        </g>
    </g>
</svg>